<svg xmlns="http://www.w3.org/2000/svg" viewBox="0 0 1080 1080"><title>Zeichenfläche 1 Kopie</title><g id="Ebene_2" data-name="Ebene 2"><polygon points="891.09 430.91 891.09 542.37 613.8 542.37 613.8 970.13 188.91 970.13 188.91 430.91 244.91 387.13 271.81 366.11 540.72 156.89 808.19 366.11 835.09 387.13 891.09 430.91" style="fill:none;stroke:#2c2c2c;stroke-miterlimit:10;stroke-width:20px"/><polygon points="1032.96 436.33 898.01 436.33 891.09 430.91 835.09 387.13 808.19 366.11 540 156.49 271.81 366.11 244.91 387.13 188.91 430.91 182.26 436.11 181.99 436.33 47.04 436.33 293.53 243.67 540 51 786.47 243.67 1032.96 436.33" style="fill:none;stroke:#2c2c2c;stroke-miterlimit:10;stroke-width:20px"/><rect x="288.5" y="604.01" width="212.8" height="365.41" style="fill:none;stroke:#2c2c2c;stroke-miterlimit:10;stroke-width:20px"/><rect x="729.1" y="650.58" width="221.7" height="61.11" style="fill:none;stroke:#2c2c2c;stroke-miterlimit:10;stroke-width:20px"/><rect x="729.32" y="782.69" width="221.67" height="195.04" style="fill:none;stroke:#2c2c2c;stroke-miterlimit:10;stroke-width:20px"/><rect x="668.4" y="596.25" width="346.87" height="431.34" style="fill:none;stroke:#2c2c2c;stroke-miterlimit:10;stroke-width:20px"/><rect x="469.2" y="306.8" width="141.6" height="141.6" style="fill:none;stroke:#2c2c2c;stroke-miterlimit:10;stroke-width:20px"/></g></svg>