<svg xmlns="http://www.w3.org/2000/svg" xmlns:xlink="http://www.w3.org/1999/xlink" viewBox="0 0 1054.01 1160.77"><defs><style>.cls-1{fill:none;}.cls-2{fill:url(#Unbenannter_Verlauf_30);}.cls-3{fill:url(#Unbenannter_Verlauf_79);}.cls-4{fill:#f7f7f7;}.cls-5{clip-path:url(#clip-path);}.cls-6{fill:url(#Unbenannter_Verlauf_46);}.cls-7{fill:url(#Unbenannter_Verlauf_22);}</style><linearGradient id="Unbenannter_Verlauf_30" x1="246.44" y1="-56.78" x2="984.81" y2="1479.58" gradientUnits="userSpaceOnUse"><stop offset="0" stop-color="#f4f4f4"/><stop offset="1" stop-color="#9f9f9f"/></linearGradient><linearGradient id="Unbenannter_Verlauf_79" x1="559.75" y1="-227.98" x2="442.8" y2="2468.67" gradientUnits="userSpaceOnUse"><stop offset="0" stop-color="#e6e6e6"/><stop offset="1" stop-color="#b3b3b3"/></linearGradient><clipPath id="clip-path" transform="translate(0 -0.01)"><path class="cls-1" d="M995.36,526.89C995.31,345,995.36,0,995.36,0H58.65s-.06,268.47,0,527.14,209.81,468.3,468.48,468.23S995.43,785.56,995.36,526.89Z"/></clipPath><linearGradient id="Unbenannter_Verlauf_46" x1="326.62" y1="361.98" x2="326.62" y2="1245.35" gradientUnits="userSpaceOnUse"><stop offset="0" stop-color="#0071bc"/><stop offset="1" stop-color="#2f457f"/></linearGradient><linearGradient id="Unbenannter_Verlauf_22" x1="772.68" y1="677.38" x2="772.68" y2="1228.94" gradientUnits="userSpaceOnUse"><stop offset="0" stop-color="#4dbef7"/><stop offset="1" stop-color="#0272ab"/></linearGradient></defs><title>Element 14icons</title><g id="Ebene_2" data-name="Ebene 2"><g id="Ebene_1-2" data-name="Ebene 1"><path class="cls-2" d="M526.86,0C235.82.08-.07,236.1,0,527.16S236.09,1054.09,527.15,1054,1054.08,817.93,1054,526.87,817.92-.06,526.86,0Zm.27,995.36C268.46,995.44,58.72,785.8,58.65,527.14S268.22,58.73,526.88,58.66,995.29,268.23,995.36,526.89,785.79,995.3,527.13,995.37Z" transform="translate(0 -0.01)"/><path class="cls-3" d="M526.86,0C235.82.08-.07,236.1,0,527.16S236.09,1054.09,527.15,1054,1054.08,817.93,1054,526.87,817.92-.06,526.86,0Zm.27,995.36C268.46,995.44,58.72,785.8,58.65,527.14S268.22,58.73,526.88,58.66,995.29,268.23,995.36,526.89,785.79,995.3,527.13,995.37Z" transform="translate(0 -0.01)"/><circle class="cls-4" cx="527.01" cy="527.01" r="468.35"/><g class="cls-5"><polygon class="cls-6" points="553.35 175.96 99.67 262.2 99.86 1159.92 553.56 1159.8 553.35 175.96"/><polygon class="cls-7" points="587.58 402.13 954.96 504.21 957.79 1158.71 591 1160.77 587.58 402.13"/></g></g></g></svg>