<svg xmlns="http://www.w3.org/2000/svg" xmlns:xlink="http://www.w3.org/1999/xlink" viewBox="0 0 1054 1160.76"><defs><style>.cls-1{fill:none;}.cls-2{fill:#9f9f9f;}.cls-3{fill:#f4f4f4;}.cls-4{clip-path:url(#clip-path);}</style><clipPath id="clip-path"><path class="cls-1" d="M995.35,526.88C995.3,345,995.35,0,995.35,0H58.65s-.07,268.46,0,527.12,209.81,468.3,468.47,468.23S995.42,785.54,995.35,526.88Z"/></clipPath></defs><title>Element 15icons</title><g id="Ebene_2" data-name="Ebene 2"><g id="Ebene_1-2" data-name="Ebene 1"><path class="cls-2" d="M526.86,0C235.82.07-.07,236.09,0,527.14S236.09,1054.07,527.14,1054,1054.07,817.91,1054,526.86,817.91-.07,526.86,0Zm.26,995.35c-258.66.07-468.4-209.57-468.47-468.23S268.22,58.72,526.88,58.65s468.4,209.57,468.47,468.23S785.78,995.28,527.12,995.35Z"/><path class="cls-3" d="M526.86,0C235.82.07-.07,236.09,0,527.14S236.09,1054.07,527.14,1054,1054.07,817.91,1054,526.86,817.91-.07,526.86,0Zm.26,995.35c-258.66.07-468.4-209.57-468.47-468.23S268.22,58.72,526.88,58.65s468.4,209.57,468.47,468.23S785.78,995.28,527.12,995.35Z"/><circle class="cls-1" cx="527" cy="527" r="468.35"/><g class="cls-4"><polygon class="cls-3" points="553.34 175.96 99.67 262.19 99.86 1159.91 553.56 1159.79 553.34 175.96"/><polygon class="cls-3" points="587.57 402.13 954.95 504.2 957.78 1158.7 590.99 1160.76 587.57 402.13"/></g></g></g></svg>