<svg xmlns="http://www.w3.org/2000/svg" xmlns:xlink="http://www.w3.org/1999/xlink" viewBox="0 0 2380.97 781.9"><defs><style>.cls-1{fill:none;}.cls-2{fill:url(#Unbenannter_Verlauf_30);}.cls-3{fill:url(#Unbenannter_Verlauf_79);}.cls-4{fill:#f7f7f7;}.cls-5{clip-path:url(#clip-path);}.cls-6{fill:url(#Unbenannter_Verlauf_46);}.cls-7{fill:url(#Unbenannter_Verlauf_22);}.cls-8{fill:#2c2c2c;}</style><linearGradient id="Unbenannter_Verlauf_30" x1="166" y1="-38.24" x2="663.37" y2="996.65" gradientUnits="userSpaceOnUse"><stop offset="0" stop-color="#f4f4f4"/><stop offset="1" stop-color="#9f9f9f"/></linearGradient><linearGradient id="Unbenannter_Verlauf_79" x1="377.05" y1="-153.57" x2="298.28" y2="1662.9" gradientUnits="userSpaceOnUse"><stop offset="0" stop-color="#e6e6e6"/><stop offset="1" stop-color="#b3b3b3"/></linearGradient><clipPath id="clip-path" transform="translate(0 -0.01)"><path class="cls-1" d="M670.48,354.92c0-122.52,0-354.92,0-354.92h-631s0,180.84,0,355.08,141.33,315.45,315.57,315.4S670.53,529.15,670.48,354.92Z"/></clipPath><linearGradient id="Unbenannter_Verlauf_46" x1="220.01" y1="243.83" x2="220.01" y2="838.87" gradientUnits="userSpaceOnUse"><stop offset="0" stop-color="#0071bc"/><stop offset="1" stop-color="#2f457f"/></linearGradient><linearGradient id="Unbenannter_Verlauf_22" x1="520.49" y1="456.29" x2="520.49" y2="827.82" gradientUnits="userSpaceOnUse"><stop offset="0" stop-color="#4dbef7"/><stop offset="1" stop-color="#0272ab"/></linearGradient></defs><title>Element 16icons</title><g id="Ebene_2" data-name="Ebene 2"><g id="Ebene_1-2" data-name="Ebene 1"><path class="cls-2" d="M354.9,0C158.85.06,0,159,0,355.09S159,710,355.09,710,710,551,710,354.9,551,0,354.9,0Zm.18,670.47c-174.24,0-315.52-141.16-315.57-315.4S180.68,39.56,354.91,39.52s315.52,141.16,315.57,315.4S529.31,670.43,355.08,670.48Z" transform="translate(0 -0.01)"/><path class="cls-3" d="M354.9,0C158.85.06,0,159,0,355.09S159,710,355.09,710,710,551,710,354.9,551,0,354.9,0Zm.18,670.47c-174.24,0-315.52-141.16-315.57-315.4S180.68,39.56,354.91,39.52s315.52,141.16,315.57,315.4S529.31,670.43,355.08,670.48Z" transform="translate(0 -0.01)"/><circle class="cls-4" cx="355" cy="354.99" r="315.49"/><g class="cls-5"><polygon class="cls-6" points="372.74 118.53 67.14 176.62 67.27 781.32 372.88 781.25 372.74 118.53"/><polygon class="cls-7" points="395.8 270.88 643.27 339.63 645.17 780.51 398.1 781.9 395.8 270.88"/></g><path class="cls-8" d="M1100.77,90.16,1055,227.25h-20.57L997,117.78,959.57,227.25h-21L892.79,90.16H913L950,201.6,988.56,90.16h18l37.8,112,37.8-112Z" transform="translate(0 -0.01)"/><path class="cls-8" d="M1233.94,210.21v17h-99.49V90.16h96.75v17H1154v42.11h68.74V166H1154v44.26Z" transform="translate(0 -0.01)"/><path class="cls-8" d="M1275.46,90.16H1295V227.25h-19.58Z" transform="translate(0 -0.01)"/><path class="cls-8" d="M1463.86,90.16V227.25H1447.8L1365.55,125V227.25H1346V90.16H1362l82.25,102.23V90.16Z" transform="translate(0 -0.01)"/><path class="cls-8" d="M1625.82,168.21q6.84,8.72,6.85,22,0,17.82-13.41,27.42t-39.07,9.59h-65.41V90.16h61.49q23.51,0,36.33,9.41t12.82,26a33.88,33.88,0,0,1-5,18.61A32.54,32.54,0,0,1,1607,156.16Q1619,159.49,1625.82,168.21ZM1534.36,106V149.9h40.15q15.08,0,23.2-5.59t8.13-16.35q0-10.77-8.13-16.35t-23.2-5.58Zm70.11,99.88q8.41-5.49,8.42-17.24,0-22.9-33.49-22.91h-45v45.63h45Q1596.05,211.39,1604.47,205.91Z" transform="translate(0 -0.01)"/><path class="cls-8" d="M1772.3,210.21v17h-99.48V90.16h96.74v17H1692.4v42.11h68.74V166H1692.4v44.26Z" transform="translate(0 -0.01)"/><path class="cls-8" d="M1905.47,227.25l-29.57-42.1q-5.49.39-8.62.39H1833.4v41.71h-19.58V90.16h53.46q26.64,0,41.91,12.73T1924.47,138q0,15.87-7.83,27t-22.33,16.25l32.51,46Zm-10.38-66.39q9.79-8,9.8-22.91t-9.8-22.82q-9.79-7.92-28.39-7.93h-33.3v61.69h33.3Q1885.3,168.89,1895.09,160.86Z" transform="translate(0 -0.01)"/><path class="cls-8" d="M2061,157.93h18.8v53.46a73.22,73.22,0,0,1-23.7,12.93,88.67,88.67,0,0,1-28.2,4.5q-20.76,0-37.41-9.11a67.53,67.53,0,0,1-26.14-25.06,69,69,0,0,1-9.5-35.94,69.48,69.48,0,0,1,9.5-36,66.42,66.42,0,0,1,26.24-25.06q16.76-9,37.7-9A79.55,79.55,0,0,1,2058.13,94a61,61,0,0,1,22.81,15.77l-12.14,12.14Q2052.34,106,2029.05,106a58,58,0,0,0-28.11,6.75,49.62,49.62,0,0,0-19.48,18.8,55.34,55.34,0,0,0,0,54.06,50.12,50.12,0,0,0,19.48,18.89,56.72,56.72,0,0,0,27.91,6.86q18.4,0,32.12-8.81Z" transform="translate(0 -0.01)"/><path class="cls-8" d="M2226.45,210.21v17H2127V90.16h96.75v17h-77.16v42.11h68.74V166h-68.74v44.26Z" transform="translate(0 -0.01)"/><path class="cls-8" d="M2359.62,227.25l-29.57-42.1q-5.49.39-8.62.39h-33.88v41.71H2268V90.16h53.46q26.64,0,41.91,12.73T2378.62,138q0,15.87-7.84,27t-22.32,16.25l32.51,46Zm-10.38-66.39q9.8-8,9.79-22.91t-9.79-22.82q-9.79-7.92-28.4-7.93h-33.29v61.69h33.29Q2339.46,168.89,2349.24,160.86Z" transform="translate(0 -0.01)"/><path class="cls-8" d="M1018.13,364.49q6.86,8.72,6.85,22,0,17.82-13.41,27.41t-39.07,9.6H907.09V286.45h61.49q23.5,0,36.33,9.4t12.83,26a33.85,33.85,0,0,1-5,18.6,32.49,32.49,0,0,1-13.41,11.95Q1011.27,355.78,1018.13,364.49Zm-91.46-62.18v43.87h40.15q15.07,0,23.2-5.58t8.13-16.35q0-10.77-8.13-16.35t-23.2-5.59Zm70.11,99.88q8.41-5.47,8.42-17.23,0-22.92-33.49-22.92h-45v45.64h45Q988.36,407.68,996.78,402.19Z" transform="translate(0 -0.01)"/><path class="cls-8" d="M1065.13,286.45h19.58V423.54h-19.58Z" transform="translate(0 -0.01)"/><path class="cls-8" d="M1135.63,286.45h19.58V406.5h74.23v17h-93.81Z" transform="translate(0 -0.01)"/><path class="cls-8" d="M1361.24,406.5v17h-99.49V286.45h96.74v17h-77.16v42.1h68.74v16.65h-68.74V406.5Z" transform="translate(0 -0.01)"/><path class="cls-8" d="M1430,303.49h-47v-17h113.39v17h-47V423.54H1430Z" transform="translate(0 -0.01)"/><path class="cls-8" d="M1556.68,303.49h-47v-17h113.39v17h-47V423.54h-19.39Z" transform="translate(0 -0.01)"/><path class="cls-8" d="M1654.21,286.45h19.58V423.54h-19.58Z" transform="translate(0 -0.01)"/><path class="cls-8" d="M907.09,482.74h19.58V619.82H907.09Z" transform="translate(0 -0.01)"/><path class="cls-8" d="M1104.69,619.82l-.2-99.87L1055,603.18h-9l-49.55-82.65v99.29h-18.8V482.74h16.06l57.18,96.35,56.4-96.35h16.06l.2,137.08Z" transform="translate(0 -0.01)"/><path class="cls-8" d="M1301.5,619.82l-.19-99.87-49.55,83.23h-9l-49.54-82.65v99.29h-18.8V482.74h16l57.19,96.35,56.4-96.35h16.06l.2,137.08Z" transform="translate(0 -0.01)"/><path class="cls-8" d="M1395.7,612.28a67.22,67.22,0,0,1-26.14-25.16,72.36,72.36,0,0,1,0-71.68,67.29,67.29,0,0,1,26.14-25.16q16.65-9.11,37.41-9.11a76.26,76.26,0,0,1,37.21,9.11,66.79,66.79,0,0,1,26,25.06,69.47,69.47,0,0,1,9.4,35.94q0,20-9.4,35.94a66.79,66.79,0,0,1-26,25.06,76.15,76.15,0,0,1-37.21,9.11Q1412.35,621.39,1395.7,612.28Zm64.53-15.17a50.33,50.33,0,0,0,19-18.9,55.65,55.65,0,0,0,0-53.86,50.4,50.4,0,0,0-19-18.9,54,54,0,0,0-27.12-6.85,55,55,0,0,0-27.32,6.85,50,50,0,0,0-19.2,18.9,55.65,55.65,0,0,0,0,53.86,50,50,0,0,0,19.2,18.9,54.92,54.92,0,0,0,27.32,6.85A53.85,53.85,0,0,0,1460.23,597.11Z" transform="translate(0 -0.01)"/><path class="cls-8" d="M1656.56,560.78q6.86,8.72,6.85,22,0,17.82-13.41,27.42t-39.07,9.59h-65.41V482.74H1607q23.51,0,36.33,9.4t12.83,26a33.86,33.86,0,0,1-5,18.61,32.54,32.54,0,0,1-13.41,11.94Q1649.7,552.08,1656.56,560.78ZM1565.1,498.6v43.87h40.15q15.07,0,23.21-5.58t8.12-16.36q0-10.75-8.12-16.35t-23.21-5.58Zm70.11,99.88q8.41-5.49,8.42-17.24,0-22.9-33.48-22.91H1565.1V604h45.05Q1626.79,604,1635.21,598.48Z" transform="translate(0 -0.01)"/><path class="cls-8" d="M1703.56,482.74h19.58V619.82h-19.58Z" transform="translate(0 -0.01)"/><path class="cls-8" d="M1774.06,482.74h19.58v120h74.23v17h-93.81Z" transform="translate(0 -0.01)"/><path class="cls-8" d="M1900.18,482.74h19.58V619.82h-19.58Z" transform="translate(0 -0.01)"/><path class="cls-8" d="M2070.17,602.79v17h-99.49V482.74h96.75v17h-77.16v42.1H2059v16.65h-68.74v44.26Z" transform="translate(0 -0.01)"/><path class="cls-8" d="M2229.58,482.74V619.82h-16.06L2131.27,517.6V619.82h-19.58V482.74h16L2210,585V482.74Z" transform="translate(0 -0.01)"/></g></g></svg>