<svg xmlns="http://www.w3.org/2000/svg" viewBox="0 0 119.31 119.31"><defs><style>.cls-1{fill:#0272ab;}</style></defs><title>Icon awesome-phone-alticons</title><g id="Ebene_2" data-name="Ebene 2"><g id="Ebene_1-2" data-name="Ebene 1"><path id="Icon_awesome-phone-alt" data-name="Icon awesome-phone-alt" class="cls-1" d="M115.91,84.31,89.82,73.13a5.59,5.59,0,0,0-6.53,1.6L71.73,88.86a86.41,86.41,0,0,1-41.29-41.3L44.56,36a5.58,5.58,0,0,0,1.61-6.5L35,3.38A5.63,5.63,0,0,0,28.57.14L4.34,5.73A5.6,5.6,0,0,0,0,11.18,108.1,108.1,0,0,0,108.1,119.31h0a5.57,5.57,0,0,0,5.45-4.33l5.59-24.24a5.65,5.65,0,0,0-3.26-6.43Z"/></g></g></svg>