<svg xmlns="http://www.w3.org/2000/svg" viewBox="0 0 1080 1080"><title>Zeichenfläche 1</title><g id="Ebene_2" data-name="Ebene 2"><path d="M502.55,560a86.62,86.62,0,1,1-12.13-44.22A86,86,0,0,1,502.55,560Z" style="fill:none;stroke:#2c2c2c;stroke-miterlimit:10;stroke-width:20px"/><path d="M750.72,515.78v38.07L707.56,597H632l-16.67-28.88H595.54L578.86,597H494.27a86.73,86.73,0,0,0-3.85-81.22Z" style="fill:none;stroke:#2c2c2c;stroke-miterlimit:10;stroke-width:20px"/><path d="M805.31,153.52S685,110.2,561.06,140.28C444.18,168.65,159.18,299.11,152,303.92s-24.07,26.47-9.63,45.73,31.29,33.69,62.57,21.65,182.89-52.94,182.89-52.94" style="fill:none;stroke:#2c2c2c;stroke-miterlimit:10;stroke-width:20px"/><path d="M573.09,253.39s-199.74,24.06-187.7,81.82,45.72,36.09,57.75,31.28,133.47-22.17,219,12c84.22,33.69,142-16.84,142-16.84" style="fill:none;stroke:#2c2c2c;stroke-miterlimit:10;stroke-width:20px"/><rect x="804.11" y="109" width="139.57" height="293.59" style="fill:none;stroke:#2c2c2c;stroke-miterlimit:10;stroke-width:20px"/><path d="M273.16,967s119,42.84,241.55,13.09C630.3,952,912.14,823,919.28,818.23s23.8-26.17,9.52-45.21-30.94-33.32-61.88-21.42S686.06,804,686.06,804" style="fill:none;stroke:#2c2c2c;stroke-miterlimit:10;stroke-width:20px"/><path d="M502.81,868.21s197.52-23.8,185.63-80.91-45.22-35.7-57.12-30.94-132,21.93-216.56-11.9c-83.3-33.32-140.41,16.66-140.41,16.66" style="fill:none;stroke:#2c2c2c;stroke-miterlimit:10;stroke-width:20px"/><rect x="136.32" y="720.66" width="138.03" height="290.34" transform="translate(410.66 1731.66) rotate(180)" style="fill:none;stroke:#2c2c2c;stroke-miterlimit:10;stroke-width:20px"/></g></svg>